<svg width="16" height="16" viewBox="0 0 16 16" fill="none" xmlns="http://www.w3.org/2000/svg">
<path d="M5.50004 6.76988C5.64797 6.86874 5.82213 6.92098 6.00004 6.91988C6.12103 6.90628 6.23731 6.86523 6.34004 6.79988C6.45057 6.75495 6.55219 6.69061 6.64005 6.60988C6.72078 6.52202 6.7851 6.42042 6.83003 6.30988C6.87796 6.20304 6.90187 6.08697 6.90003 5.96988C6.90113 5.79197 6.84889 5.61781 6.75004 5.46988C6.64977 5.32107 6.50685 5.20603 6.34004 5.13988C6.17107 5.08488 5.98902 5.08488 5.82005 5.13988C5.64705 5.17463 5.48749 5.25787 5.36002 5.37988C5.23801 5.50734 5.15478 5.66689 5.12003 5.83988C5.08101 6.01413 5.09854 6.19627 5.17005 6.35988C5.2362 6.52669 5.35122 6.66961 5.50004 6.76988Z" fill="#fff"/>
<path d="M10 10.9299C9.82093 10.9286 9.6465 10.8728 9.5 10.7699C9.34861 10.6742 9.23 10.5347 9.16 10.3699C9.11415 10.1996 9.11415 10.0202 9.16 9.84986C9.20101 9.67705 9.2873 9.51827 9.41 9.38986C9.53841 9.26715 9.69718 9.18086 9.86999 9.13986C10.0403 9.094 10.2197 9.094 10.39 9.13986C10.5562 9.20755 10.6964 9.3267 10.79 9.47986C10.893 9.62637 10.9488 9.8008 10.95 9.97986C10.9467 10.0964 10.923 10.2115 10.88 10.3199C10.8346 10.4296 10.7664 10.5284 10.68 10.6099C10.5985 10.6963 10.4997 10.7644 10.39 10.8099C10.2696 10.8762 10.1369 10.9171 10 10.9299Z" fill="#fff"/>
<path d="M5.31003 10.6899C5.40866 10.7793 5.53689 10.8292 5.67004 10.8299C5.79278 10.8221 5.90918 10.7727 6.00003 10.6899L10.71 6.01985C10.8023 5.9247 10.8539 5.79738 10.8539 5.66485C10.8539 5.53233 10.8023 5.405 10.71 5.30985C10.6149 5.2176 10.4876 5.16602 10.355 5.16602C10.2225 5.16602 10.0952 5.2176 10 5.30985L5.31003 9.97985C5.21778 10.075 5.1662 10.2023 5.1662 10.3349C5.1662 10.4674 5.21778 10.5947 5.31003 10.6899Z" fill="#fff"/>
<path fill-rule="evenodd" clip-rule="evenodd" d="M3.1705 12.8295C4.45138 14.1103 6.1886 14.8299 8.00003 14.8299C9.81146 14.8299 11.5487 14.1103 12.8296 12.8295C14.1104 11.5486 14.83 9.81135 14.83 7.99992C14.83 6.18849 14.1104 4.45126 12.8296 3.17038C11.5487 1.88951 9.81146 1.16992 8.00003 1.16992C6.1886 1.16992 4.45138 1.88951 3.1705 3.17038C1.88963 4.45126 1.17004 6.18849 1.17004 7.99992C1.17004 9.81135 1.88963 11.5486 3.1705 12.8295ZM3.87759 3.87749C4.97093 2.78415 6.45382 2.16992 8.00003 2.16992C9.54624 2.16992 11.0291 2.78415 12.1225 3.87749C13.2158 4.97083 13.83 6.45371 13.83 7.99992C13.83 9.54613 13.2158 11.029 12.1225 12.1224C11.0291 13.2157 9.54624 13.8299 8.00003 13.8299C6.45382 13.8299 4.97093 13.2157 3.87759 12.1224C2.78426 11.029 2.17004 9.54613 2.17004 7.99992C2.17004 6.45371 2.78426 4.97083 3.87759 3.87749Z" fill="#fff"/>
</svg>
