<svg width="16" height="16" viewBox="0 0 16 16" fill="none" xmlns="http://www.w3.org/2000/svg">
<path d="M8.12001 11.46C8.52318 11.46 8.85001 11.1332 8.85001 10.73C8.85001 10.3269 8.52318 10 8.12001 10C7.71684 10 7.39001 10.3269 7.39001 10.73C7.39001 11.1332 7.71684 11.46 8.12001 11.46Z" fill="#fff"/>
<path d="M7.26164 4.58756C7.74273 4.36838 8.28925 4.34064 8.79008 4.50993C9.17118 4.60752 9.50764 4.83209 9.74397 5.14659C9.9803 5.46108 10.1024 5.84671 10.0901 6.23991C10.0856 6.50331 10.0264 6.76289 9.91621 7.00218C9.80603 7.24147 9.64729 7.45526 9.45008 7.62992C9.32321 7.74857 9.18599 7.85567 9.04008 7.94993C8.94868 8.01021 8.86178 8.07707 8.78007 8.14994C8.70106 8.21151 8.64192 8.29498 8.61006 8.38993C8.58505 8.48498 8.58505 8.58486 8.61006 8.67991C8.62309 8.74496 8.62305 8.81196 8.60993 8.87699C8.59682 8.94203 8.5709 9.00378 8.53367 9.05869C8.49644 9.11361 8.44866 9.16056 8.39311 9.19682C8.33755 9.23308 8.27531 9.25796 8.21006 9.26994H8.12007C8.0043 9.2719 7.89158 9.23281 7.80189 9.15959C7.71219 9.08637 7.65133 8.98373 7.63008 8.86991C7.56971 8.59324 7.59055 8.30501 7.69007 8.0399C7.78113 7.77707 7.94394 7.545 8.16007 7.36991C8.26128 7.28288 8.36819 7.20272 8.48008 7.12992L8.81007 6.86991C8.98952 6.70373 9.09713 6.47414 9.11006 6.2299C9.11985 6.05033 9.06302 5.87351 8.95045 5.73326C8.83788 5.59301 8.67751 5.49919 8.50007 5.46989C8.24072 5.37504 7.95502 5.38219 7.70072 5.48985C7.44642 5.59751 7.24248 5.79767 7.13008 6.04991C7.10688 6.11064 7.07183 6.16618 7.02696 6.21324C6.98209 6.26029 6.92829 6.29796 6.86872 6.32402C6.80916 6.35008 6.74501 6.36401 6.68 6.36503C6.61499 6.36605 6.55041 6.35412 6.49006 6.32994C6.42843 6.30773 6.3719 6.27336 6.32377 6.22892C6.27564 6.18448 6.23692 6.13088 6.20988 6.07121C6.18284 6.01154 6.16805 5.94706 6.16636 5.88157C6.16468 5.81609 6.17615 5.7509 6.20008 5.68992C6.401 5.20092 6.78055 4.80675 7.26164 4.58756Z" fill="#fff"/>
<path fill-rule="evenodd" clip-rule="evenodd" d="M8.00003 1.16992C7.1031 1.16992 6.21495 1.34658 5.38629 1.68982C4.55764 2.03306 3.80473 2.53619 3.1705 3.17041C2.53628 3.80463 2.03318 4.55758 1.68994 5.38623C1.3467 6.21488 1.17004 7.10301 1.17004 7.99994C1.17004 9.81137 1.88963 11.5486 3.1705 12.8295C4.45138 14.1103 6.1886 14.83 8.00003 14.83C9.81146 14.83 11.5487 14.1103 12.8296 12.8295C14.1104 11.5486 14.83 9.81137 14.83 7.99994C14.83 7.10301 14.6534 6.21488 14.3101 5.38623C13.9669 4.55758 13.4638 3.80463 12.8296 3.17041C12.1953 2.53619 11.4424 2.03306 10.6138 1.68982C9.78512 1.34658 8.89696 1.16992 8.00003 1.16992ZM8.00003 13.83C6.45382 13.83 4.97093 13.2157 3.87759 12.1224C2.78426 11.029 2.17004 9.54615 2.17004 7.99994C2.17004 6.45373 2.78426 4.97084 3.87759 3.8775C4.97093 2.78417 6.45382 2.16992 8.00003 2.16992C9.54624 2.16992 11.0291 2.78417 12.1225 3.8775C13.2158 4.97084 13.83 6.45373 13.83 7.99994C13.83 8.76555 13.6792 9.52363 13.3863 10.231C13.0933 10.9383 12.6638 11.581 12.1225 12.1224C11.5811 12.6637 10.9384 13.0932 10.2311 13.3862C9.52375 13.6792 8.76564 13.83 8.00003 13.83Z" fill="#fff"/>
</svg>
