<svg width="16" height="16" viewBox="0 0 16 16" fill="none" xmlns="http://www.w3.org/2000/svg">
<path d="M7.84998 6.07996C8.30837 6.07996 8.67998 5.70834 8.67998 5.24994C8.67998 4.79153 8.30837 4.41992 7.84998 4.41992C7.39158 4.41992 7.01997 4.79153 7.01997 5.24994C7.01997 5.70834 7.39158 6.07996 7.84998 6.07996Z" fill="#fff"/>
<path d="M8.17999 7.3999H6.82999C6.69738 7.3999 6.57021 7.45248 6.47644 7.54626C6.38268 7.64005 6.32999 7.7673 6.32999 7.8999C6.32999 8.0325 6.38268 8.15964 6.47644 8.25342C6.57021 8.3472 6.69738 8.3999 6.82999 8.3999H7.65997V11.8999C7.65997 12.0325 7.71266 12.1596 7.80643 12.2534C7.90019 12.3472 8.02737 12.3999 8.15997 12.3999C8.29258 12.3999 8.41978 12.3472 8.51355 12.2534C8.60732 12.1596 8.65997 12.0325 8.65997 11.8999V7.8999C8.66008 7.77069 8.61018 7.64642 8.52069 7.55322C8.43121 7.46002 8.3091 7.40506 8.17999 7.3999Z" fill="#fff"/>
<path fill-rule="evenodd" clip-rule="evenodd" d="M3.00046 3.42029C4.28133 2.1394 6.01855 1.41992 7.82999 1.41992C9.64142 1.41992 11.3786 2.1394 12.6595 3.42029C13.9404 4.70117 14.66 6.43845 14.66 8.24988C14.66 10.0613 13.9404 11.7986 12.6595 13.0795C11.3786 14.3604 9.64142 15.0798 7.82999 15.0798C6.01855 15.0798 4.28133 14.3604 3.00046 13.0795C1.71958 11.7986 1 10.0613 1 8.24988C1 6.43845 1.71958 4.70117 3.00046 3.42029ZM3.70755 12.3723C4.80089 13.4656 6.28378 14.0798 7.82999 14.0798C9.3762 14.0798 10.8591 13.4656 11.9524 12.3723C13.0458 11.279 13.66 9.79608 13.66 8.24988C13.66 6.70367 13.0458 5.22076 11.9524 4.12744C10.8591 3.03412 9.3762 2.41992 7.82999 2.41992C6.28378 2.41992 4.80089 3.03412 3.70755 4.12744C2.61421 5.22076 2 6.70367 2 8.24988C2 9.79608 2.61421 11.279 3.70755 12.3723Z" fill="#fff"/>
</svg>
