<svg width="16" height="16" viewBox="0 0 16 16" fill="none" xmlns="http://www.w3.org/2000/svg">
<path fill-rule="evenodd" clip-rule="evenodd" d="M13.35 7.75205L12.7701 7.59205C12.0394 7.38277 11.2594 7.42813 10.5579 7.7207C9.8565 8.01326 9.2754 8.53564 8.91004 9.20205L8.48005 9.98205C8.43852 10.0602 8.37662 10.1256 8.30091 10.1714C8.2252 10.2171 8.13852 10.2416 8.05006 10.2421C7.9664 10.2419 7.88408 10.2208 7.81071 10.1806C7.73733 10.1404 7.67522 10.0825 7.63004 10.012L7.11005 9.18205C6.89629 8.82818 6.61346 8.52098 6.27845 8.27874C5.94343 8.03649 5.56307 7.86417 5.16004 7.77205L3.08005 7.23205C2.90731 7.18928 2.74528 7.11123 2.60416 7.00281C2.46304 6.89439 2.34588 6.75795 2.26005 6.60205C2.17896 6.44985 2.12923 6.28292 2.11378 6.11116C2.09832 5.9394 2.11745 5.76629 2.17005 5.60205C2.26521 5.29736 2.47078 5.03922 2.74644 4.87827C3.02209 4.71732 3.34792 4.66517 3.66004 4.73205L7.21006 5.38205C7.97617 4.92804 8.8613 4.71546 9.75004 4.77205C9.81662 4.76721 9.88347 4.76721 9.95005 4.77205L9.66004 3.90205L9.08005 3.83205C8.94816 3.81455 8.8283 3.7462 8.7461 3.64157C8.6639 3.53695 8.62585 3.40434 8.64005 3.27205C8.65748 3.14086 8.72621 3.02192 8.83118 2.94132C8.93616 2.86071 9.0688 2.82502 9.20005 2.84205L10.1 2.95205C10.1943 2.96191 10.2836 2.99945 10.3565 3.05996C10.4295 3.12047 10.4829 3.20123 10.51 3.29205L11.57 6.48205C12.065 6.44805 12.5621 6.49878 13.04 6.63205L13.62 6.79205C13.7473 6.82918 13.8547 6.91536 13.9185 7.03163C13.9822 7.14791 13.9972 7.28475 13.9601 7.41205C13.9428 7.4747 13.9132 7.53329 13.8731 7.58441C13.8329 7.63552 13.783 7.67814 13.7262 7.70978C13.6695 7.74142 13.607 7.76146 13.5424 7.76872C13.4778 7.77597 13.4124 7.7703 13.35 7.75205ZM7.98005 8.64205L8.04005 8.74205C8.56439 7.74796 9.45314 6.99539 10.5201 6.64205L10.47 6.55205V6.45205C10.24 5.95205 10.0201 5.70205 9.80006 5.70205C9.07542 5.61248 8.343 5.79025 7.74006 6.20205C7.68349 6.25576 7.61514 6.29548 7.54047 6.31806C7.46581 6.34063 7.38688 6.34542 7.31003 6.33205C7.30719 6.33205 7.04229 6.28352 6.65312 6.21223C5.67389 6.03283 3.90786 5.7093 3.55006 5.65205H3.45005C3.38518 5.64954 3.32135 5.66888 3.26877 5.70695C3.2162 5.74502 3.1779 5.79964 3.16004 5.86205C3.14326 5.90159 3.13462 5.9441 3.13462 5.98705C3.13462 6.03 3.14326 6.07251 3.16004 6.11205C3.17801 6.1471 3.20344 6.1778 3.23453 6.20198C3.26563 6.22617 3.30163 6.24326 3.34003 6.25205L5.42005 6.79205C5.94809 6.91532 6.44635 7.14236 6.88584 7.45996C7.32533 7.77756 7.69727 8.17939 7.98005 8.64205Z" fill="#fff"/>
<path fill-rule="evenodd" clip-rule="evenodd" d="M4.20004 8.56201C3.59004 8.56201 3.00503 8.80433 2.5737 9.23566C2.14237 9.667 1.90002 10.252 1.90002 10.862C1.90002 11.472 2.14237 12.057 2.5737 12.4884C3.00503 12.9197 3.59004 13.162 4.20004 13.162C4.81004 13.162 5.39505 12.9197 5.82639 12.4884C6.25772 12.057 6.50003 11.472 6.50003 10.862C6.50003 10.252 6.25772 9.667 5.82639 9.23566C5.39505 8.80433 4.81004 8.56201 4.20004 8.56201ZM4.20004 12.162C4.02932 12.162 3.86027 12.1284 3.70255 12.0631C3.54482 11.9977 3.40151 11.902 3.28079 11.7812C3.16008 11.6605 3.06432 11.5172 2.99899 11.3595C2.93366 11.2018 2.90002 11.0327 2.90002 10.862C2.90002 10.6913 2.93366 10.5222 2.99899 10.3645C3.06432 10.2068 3.16008 10.0635 3.28079 9.94277C3.40151 9.82206 3.54482 9.7263 3.70255 9.66096C3.86027 9.59563 4.02932 9.56201 4.20004 9.56201C4.54482 9.56201 4.87547 9.69897 5.11926 9.94277C5.36306 10.1866 5.50003 10.5172 5.50003 10.862C5.50003 11.2068 5.36306 11.5375 5.11926 11.7812C4.87547 12.025 4.54482 12.162 4.20004 12.162Z" fill="#fff"/>
<path fill-rule="evenodd" clip-rule="evenodd" d="M11.8 8.56201C11.498 8.56201 11.1989 8.6215 10.9198 8.73708C10.6408 8.85267 10.3872 9.02209 10.1737 9.23566C9.9601 9.44924 9.79067 9.70279 9.67508 9.98183C9.55949 10.2609 9.5 10.56 9.5 10.862C9.5 11.164 9.55949 11.4631 9.67508 11.7422C9.79067 12.0212 9.9601 12.2748 10.1737 12.4884C10.3872 12.7019 10.6408 12.8713 10.9198 12.9869C11.1989 13.1025 11.498 13.162 11.8 13.162C12.41 13.162 12.995 12.9197 13.4264 12.4884C13.8577 12.057 14.1 11.472 14.1 10.862C14.1 10.252 13.8577 9.667 13.4264 9.23566C12.995 8.80433 12.41 8.56201 11.8 8.56201ZM11.8 12.162C11.4552 12.162 11.1246 12.025 10.8808 11.7812C10.637 11.5375 10.5 11.2068 10.5 10.862C10.5 10.5172 10.637 10.1866 10.8808 9.94277C11.1246 9.69897 11.4552 9.56201 11.8 9.56201C12.1448 9.56201 12.4754 9.69897 12.7192 9.94277C12.963 10.1866 13.1 10.5172 13.1 10.862C13.1 11.2068 12.963 11.5375 12.7192 11.7812C12.4754 12.025 12.1448 12.162 11.8 12.162Z" fill="#fff"/>
</svg>
