<svg width="16" height="16" viewBox="0 0 16 16" fill="none" xmlns="http://www.w3.org/2000/svg">
<path d="M10.7991 6.84805C10.988 6.6467 10.978 6.33028 10.7767 6.14129C10.5753 5.95231 10.2589 5.96233 10.0699 6.16368L7.49337 8.90876L6.58738 7.99798C6.39263 7.80221 6.07605 7.80137 5.88028 7.99612C5.6845 8.19087 5.68367 8.50745 5.87841 8.70322L6.93037 9.76074C7.24955 10.0816 7.77112 10.074 8.08086 9.74405L10.7991 6.84805Z" fill="#fff"/>
<path fill-rule="evenodd" clip-rule="evenodd" d="M7.62242 13.9222C7.86098 14.0249 8.13899 14.0249 8.37753 13.9221C14.0846 11.464 14.0387 7.96299 13.9915 4.36192C13.9899 4.24534 13.9884 4.12773 13.9871 4.01097C13.9834 3.68844 13.6801 3.45163 13.3624 3.50787C10.6957 3.98 9.58043 3.07678 8.73409 2.39138C8.62759 2.30512 8.52533 2.22231 8.42478 2.14613C8.17112 1.95393 7.83024 1.95399 7.57621 2.14571C7.47568 2.22158 7.37336 2.30404 7.26677 2.38993C6.41637 3.07524 5.29413 3.97962 2.63801 3.50841C2.32021 3.45204 2.01661 3.68895 2.01297 4.01169C2.01162 4.13183 2.01006 4.25183 2.0085 4.37165C1.96131 7.99946 1.91623 11.4659 7.62242 13.9222ZM12.4781 9.04305C13.0048 7.71273 13.0133 6.26324 12.9938 4.57422C11.6071 4.74424 10.5568 4.56538 9.70939 4.2003C8.9861 3.88869 8.42019 3.42769 8.05043 3.12648L7.99977 3.08523L7.94784 3.12729C7.57607 3.42863 7.00864 3.88855 6.28468 4.19998C5.43733 4.56449 4.38823 4.74404 3.00632 4.57477C2.98668 6.2794 2.99413 7.72877 3.52064 9.05581C4.06861 10.437 5.24314 11.8055 7.99993 12.9959C10.753 11.8064 11.9289 10.4301 12.4781 9.04305Z" fill="#fff"/>
</svg>
